<svg xmlns="http://www.w3.org/2000/svg" xmlns:xlink="http://www.w3.org/1999/xlink" width="500" zoomAndPan="magnify" viewBox="0 0 375 374.999991" height="500" preserveAspectRatio="xMidYMid meet" version="1.0"><defs><g/><clipPath id="15714f93d1"><path d="M 111.113281 127.300781 L 120.871094 127.300781 L 120.871094 246.9375 L 111.113281 246.9375 Z M 111.113281 127.300781 " clip-rule="nonzero"/></clipPath></defs><g fill="#1f2122" fill-opacity="1"><g transform="translate(93.829026, 276.890624)"><g><path d="M 5.261719 -175.34375 L 5.261719 -173.589844 C 20.339844 -173.589844 21.390625 -161.140625 21.390625 -126.597656 L 21.390625 -48.746094 C 21.390625 -14.203125 20.339844 -1.753906 5.261719 -1.753906 L 5.261719 0 L 52.601562 0 L 52.601562 -1.753906 C 37.523438 -1.753906 23.144531 -14.378906 23.144531 -65.402344 L 23.144531 -87.671875 L 23.320312 -162.894531 C 49.972656 -105.730469 65.753906 -71.714844 93.28125 -12.800781 L 94.859375 -12.800781 C 116.429688 -70.664062 134.136719 -118.882812 153.074219 -169.558594 L 153.074219 -48.746094 C 153.074219 -14.203125 152.023438 -1.753906 136.945312 -1.753906 L 136.945312 0 L 184.285156 0 L 184.285156 -1.753906 C 169.207031 -1.753906 168.15625 -14.203125 168.15625 -48.746094 L 168.15625 -126.597656 C 168.15625 -161.140625 169.207031 -173.589844 184.285156 -173.589844 L 184.285156 -175.34375 L 153.425781 -175.34375 L 100.824219 -34.015625 L 33.492188 -175.34375 Z M 5.261719 -175.34375 "/></g></g></g><g clip-path="url(#15714f93d1)"><path fill="#ffffff" d="M 120.871094 127.300781 L 120.871094 246.691406 L 111.296875 246.691406 L 111.296875 127.300781 Z M 120.871094 127.300781 " fill-opacity="1" fill-rule="nonzero"/></g><g fill="#1f2122" fill-opacity="1"><g transform="translate(142.247208, 280.018048)"><g><path d="M 0.640625 -53.515625 C 0.558594 -53.597656 -0.078125 -53.996094 -0.960938 -54.476562 L -2.558594 -55.355469 L -4.640625 -56.714844 L -6.160156 -57.757812 C -7.359375 -58.554688 -10.160156 -60.636719 -10.238281 -60.714844 C -10.320312 -60.875 -11.4375 -61.675781 -11.519531 -61.675781 L -11.757812 -61.835938 L -12.878906 -62.714844 L -15.039062 -64.316406 L -15.839844 -65.035156 L -24.878906 -72.636719 L -25.277344 -72.957031 L -28.796875 -76.316406 C -30.878906 -78.476562 -31.679688 -79.195312 -32.15625 -79.59375 L -33.4375 -80.953125 C -33.917969 -81.433594 -34.398438 -81.914062 -34.636719 -81.996094 L -34.957031 -82.316406 C -34.957031 -82.394531 -35.277344 -82.792969 -35.757812 -83.195312 C -36.71875 -84.074219 -37.917969 -85.355469 -38.398438 -85.996094 C -38.796875 -86.632812 -40.476562 -88.632812 -41.355469 -89.59375 L -43.117188 -91.515625 C -44.15625 -92.714844 -44.476562 -92.875 -44.71875 -92.472656 C -44.957031 -92.152344 -44.796875 -91.675781 -43.996094 -90.875 C -43.597656 -90.394531 -43.199219 -89.914062 -43.199219 -89.835938 C -43.117188 -89.675781 -43.039062 -89.59375 -42.957031 -89.59375 C -42.71875 -89.59375 -38.238281 -84.15625 -37.996094 -83.515625 L -37.359375 -82.316406 L -34.878906 -77.996094 C -34.558594 -77.433594 -34.078125 -76.714844 -33.835938 -76.394531 C -33.519531 -76.074219 -33.359375 -75.753906 -33.359375 -75.675781 L -32.796875 -74.796875 C -32.476562 -74.394531 -31.996094 -73.753906 -31.839844 -73.355469 L -31.117188 -72.316406 C -30.796875 -71.914062 -29.277344 -69.515625 -29.277344 -69.355469 L -28.957031 -68.875 L -28.71875 -68.394531 C -28.796875 -68.394531 -28.558594 -67.996094 -28.238281 -67.597656 L -28.078125 -67.355469 L -27.199219 -65.835938 C -26.796875 -65.117188 -26.398438 -64.394531 -26.398438 -64.316406 C -26.398438 -64.234375 -26.316406 -64.074219 -26.238281 -63.996094 C -25.679688 -63.597656 -24.476562 -60.714844 -24.398438 -59.757812 C -24.320312 -59.117188 -24.320312 -59.035156 -24.558594 -59.195312 C -24.71875 -59.195312 -25.039062 -59.4375 -25.359375 -59.597656 L -26.078125 -60.078125 L -26.957031 -60.714844 C -27.359375 -60.957031 -28.078125 -61.515625 -28.636719 -61.835938 L -29.839844 -62.554688 L -30.957031 -63.4375 C -31.839844 -64.074219 -33.359375 -65.4375 -34.078125 -66.074219 L -35.996094 -67.996094 L -37.039062 -68.875 C -37.757812 -69.515625 -38.398438 -70.074219 -39.117188 -70.796875 C -39.277344 -70.957031 -39.515625 -71.117188 -39.515625 -71.117188 C -39.597656 -71.117188 -40.316406 -71.914062 -41.199219 -72.875 L -43.355469 -75.273438 L -44.238281 -76.15625 C -45.835938 -78.234375 -46.636719 -79.113281 -47.277344 -79.59375 L -48.078125 -80.394531 L -48.71875 -80.953125 L -50.558594 -82.636719 L -53.195312 -85.113281 C -53.757812 -85.675781 -54.15625 -86.074219 -54.796875 -86.632812 L -55.515625 -87.273438 L -56.238281 -87.996094 C -57.277344 -88.875 -57.917969 -88.875 -57.917969 -87.914062 C -57.917969 -87.675781 -57.757812 -87.355469 -57.195312 -86.875 L -54.15625 -83.996094 C -53.757812 -83.515625 -53.195312 -82.953125 -52.875 -82.714844 C -52.476562 -82.476562 -51.996094 -81.996094 -51.675781 -81.675781 C -50.316406 -80.394531 -49.597656 -79.675781 -48.398438 -78.636719 C -47.277344 -77.59375 -45.355469 -75.59375 -45.355469 -75.355469 C -45.355469 -75.195312 -43.757812 -73.433594 -43.675781 -73.515625 C -43.675781 -73.59375 -42.878906 -72.796875 -41.996094 -71.835938 C -40.316406 -69.996094 -39.917969 -69.59375 -38.316406 -68.15625 C -37.835938 -67.753906 -37.4375 -67.355469 -37.4375 -67.277344 C -37.519531 -67.195312 -37.519531 -67.117188 -37.4375 -67.195312 C -37.359375 -67.277344 -36.796875 -66.875 -36.238281 -66.316406 L -33.835938 -64.074219 C -33.039062 -63.4375 -31.996094 -62.554688 -31.519531 -62.234375 L -30.71875 -61.675781 C -30.476562 -61.4375 -28.160156 -59.917969 -28.078125 -59.917969 L -27.277344 -59.355469 C -26.316406 -58.636719 -24.398438 -57.597656 -24.078125 -57.597656 C -23.117188 -57.597656 -23.277344 -59.757812 -24.320312 -62.074219 C -24.796875 -63.277344 -25.839844 -65.035156 -26.160156 -65.355469 C -26.316406 -65.4375 -26.398438 -65.597656 -26.398438 -65.675781 C -26.398438 -65.757812 -26.558594 -66.15625 -26.796875 -66.554688 L -28.796875 -69.753906 L -29.917969 -71.753906 C -29.917969 -71.835938 -30.078125 -71.996094 -30.238281 -72.074219 C -30.398438 -72.234375 -30.558594 -72.394531 -30.558594 -72.476562 C -30.558594 -72.554688 -30.71875 -72.796875 -30.957031 -73.117188 C -31.199219 -73.433594 -31.519531 -73.835938 -31.597656 -73.996094 L -31.917969 -74.636719 C -32.238281 -75.035156 -32.878906 -76.074219 -33.039062 -76.316406 L -33.359375 -76.796875 C -33.757812 -77.273438 -34.71875 -78.953125 -34.71875 -79.113281 C -34.71875 -79.195312 -34.796875 -79.355469 -34.957031 -79.433594 C -35.117188 -79.59375 -35.359375 -79.914062 -35.519531 -80.234375 L -36.316406 -81.835938 L -35.679688 -81.273438 L -33.277344 -78.875 C -33.117188 -78.796875 -31.597656 -77.355469 -31.117188 -76.796875 C -30.71875 -76.316406 -29.597656 -75.273438 -28.796875 -74.636719 L -27.757812 -73.753906 L -26.796875 -72.714844 L -25.679688 -71.835938 L -22.878906 -69.355469 L -21.519531 -68.316406 L -20.796875 -67.675781 C -20.480469 -67.4375 -20.160156 -67.195312 -20.160156 -67.117188 C -20.160156 -67.035156 -20.078125 -67.035156 -20 -67.035156 C -19.839844 -67.035156 -18.078125 -65.597656 -17.917969 -65.355469 L -16.878906 -64.554688 L -15.597656 -63.515625 L -14.160156 -62.394531 L -11.917969 -60.796875 L -10.078125 -59.515625 C -7.917969 -58.078125 -6.558594 -57.117188 -6.320312 -56.875 C -6.160156 -56.714844 -6.078125 -56.636719 -6.078125 -56.714844 C -6.078125 -56.714844 -5.839844 -56.636719 -5.601562 -56.476562 L -3.121094 -54.957031 L -0.878906 -53.835938 C -0.078125 -53.4375 0.71875 -53.277344 0.640625 -53.515625 Z M 1.839844 -8.640625 C 2.320312 -9.597656 1.917969 -11.917969 0.960938 -14.160156 C 0.800781 -14.480469 0.558594 -15.039062 0.558594 -15.359375 C 0.320312 -16.398438 -3.601562 -24.320312 -4.320312 -25.117188 L -5.441406 -26.796875 C -6.398438 -28.316406 -6.320312 -28.238281 -7.121094 -29.117188 L -8.558594 -30.957031 L -10.480469 -33.277344 L -11.757812 -34.71875 L -12.480469 -35.679688 C -12.800781 -36.078125 -13.359375 -36.796875 -13.839844 -37.277344 L -20.320312 -44.957031 C -21.4375 -46.238281 -23.117188 -48.238281 -23.839844 -49.277344 C -24.398438 -49.996094 -25.039062 -50.71875 -25.277344 -50.71875 C -25.4375 -50.71875 -26 -51.355469 -25.917969 -51.515625 C -25.917969 -51.597656 -25.917969 -51.757812 -26.078125 -51.917969 L -29.839844 -56.394531 C -30 -56.554688 -30.238281 -56.714844 -30.476562 -56.796875 C -30.636719 -56.875 -30.878906 -57.035156 -30.957031 -57.277344 C -31.039062 -57.597656 -32.398438 -59.195312 -33.199219 -59.917969 L -33.996094 -60.714844 L -38.316406 -65.355469 C -38.878906 -65.996094 -39.757812 -66.796875 -40.238281 -67.117188 C -40.71875 -67.4375 -41.039062 -67.753906 -40.957031 -67.914062 C -40.957031 -67.996094 -40.957031 -68.074219 -41.039062 -68.074219 C -41.199219 -68.074219 -41.917969 -68.875 -42.15625 -69.277344 C -42.238281 -69.4375 -42.398438 -69.515625 -42.558594 -69.515625 C -42.71875 -69.4375 -42.796875 -69.515625 -42.796875 -69.753906 C -42.796875 -69.996094 -42.957031 -70.15625 -43.199219 -70.234375 C -43.4375 -70.316406 -43.597656 -70.476562 -43.597656 -70.554688 C -43.597656 -70.714844 -44.15625 -71.355469 -45.515625 -72.875 L -46.878906 -74.476562 C -48.15625 -76.074219 -49.195312 -77.113281 -49.4375 -77.035156 C -49.675781 -76.875 -49.675781 -76.476562 -49.355469 -76.316406 C -49.277344 -76.234375 -48.875 -75.835938 -48.476562 -75.355469 C -47.277344 -73.914062 -44.558594 -71.035156 -44.238281 -70.875 C -44.078125 -70.796875 -43.996094 -70.714844 -43.996094 -70.636719 C -44.078125 -70.554688 -43.757812 -70.15625 -43.4375 -69.835938 L -42.316406 -68.636719 C -42.078125 -68.394531 -41.675781 -67.996094 -41.4375 -67.835938 C -41.199219 -67.675781 -41.039062 -67.4375 -41.039062 -67.355469 C -41.039062 -67.355469 -39.917969 -66.074219 -38.558594 -64.714844 C -34.796875 -60.714844 -32.476562 -58.238281 -32.476562 -58.15625 C -32.476562 -58.078125 -30.636719 -56.15625 -29.277344 -54.636719 L -27.839844 -52.957031 C -27.519531 -52.476562 -26.957031 -51.917969 -26.71875 -51.597656 C -26.398438 -51.355469 -26.160156 -51.035156 -26.160156 -50.957031 C -26.160156 -50.875 -26 -50.636719 -25.757812 -50.398438 L -22.320312 -46.15625 L -21.039062 -44.558594 C -20.796875 -44.316406 -20.71875 -44.078125 -20.71875 -44.078125 C -20.71875 -43.996094 -20.558594 -43.835938 -20.398438 -43.675781 L -18.558594 -41.597656 C -16.71875 -39.277344 -16.160156 -38.636719 -14.800781 -37.117188 C -14.160156 -36.398438 -13.519531 -35.597656 -13.4375 -35.359375 C -13.277344 -35.039062 -13.199219 -34.796875 -13.121094 -34.796875 C -13.039062 -34.796875 -12.558594 -34.398438 -12.078125 -33.835938 L -10.878906 -32.558594 C -10.640625 -32.398438 -10.480469 -32.15625 -10.480469 -31.996094 C -10.480469 -31.917969 -10.320312 -31.679688 -10.078125 -31.4375 C -9.757812 -31.199219 -9.519531 -30.878906 -9.4375 -30.636719 C -9.4375 -30.476562 -9.199219 -30.078125 -9.039062 -29.917969 L -8.398438 -29.199219 C -8.320312 -29.039062 -7.917969 -28.71875 -7.679688 -28.476562 C -7.359375 -28.238281 -7.121094 -28.078125 -7.199219 -28 C -7.199219 -27.917969 -6.960938 -27.4375 -6.558594 -26.878906 C -6.160156 -26.316406 -5.839844 -25.757812 -5.839844 -25.679688 L -4.800781 -24 C -4.238281 -23.117188 -3.679688 -22.160156 -3.601562 -21.839844 L -2.878906 -20.558594 L -2.078125 -18.796875 C -1.199219 -16.640625 -1.039062 -16.238281 -0.71875 -15.359375 L 0 -13.359375 C 0.238281 -12.800781 0.398438 -12 0.398438 -11.199219 C 0.480469 -9.839844 0.480469 -9.839844 0.078125 -10 C -0.800781 -10.238281 -1.039062 -10.238281 -1.199219 -9.917969 C -1.359375 -9.757812 -1.359375 -9.519531 -1.28125 -9.199219 C -1.039062 -8.558594 -0.398438 -8.160156 0.640625 -8.078125 L 1.601562 -8 Z M 1.839844 -8.640625 "/></g></g></g><g fill="#1f2122" fill-opacity="1"><g transform="translate(142.247208, 198.585959)"><g><path d="M -21.679688 1.679688 L -21.679688 1.199219 C -21.679688 0.558594 -22.398438 -0.558594 -22.71875 -0.960938 L -23.199219 -1.519531 L -23.277344 -1.601562 L -22.957031 -1.601562 C -22.238281 -1.441406 -21.359375 -1.679688 -21.679688 -3.039062 L -21.679688 -3.28125 C -21.679688 -3.28125 -22.078125 -4.71875 -22.71875 -6.238281 L -24.320312 -9.757812 L -24.796875 -10.71875 C -24.878906 -10.960938 -25.117188 -10.960938 -25.199219 -10.800781 L -25.277344 -10.640625 L -25.277344 -10.480469 L -25.199219 -10.320312 C -23.679688 -6.800781 -22.71875 -4.398438 -22.480469 -3.28125 C -22.480469 -3.28125 -22.160156 -2.480469 -22.558594 -2.398438 C -22.796875 -2.238281 -23.519531 -2.480469 -24.238281 -3.039062 C -25.117188 -3.757812 -26.160156 -4.800781 -26.398438 -4.160156 C -26.476562 -3.917969 -26.476562 -3.839844 -26.078125 -3.441406 L -25.839844 -3.28125 L -25.359375 -2.800781 L -25.117188 -2.640625 C -23.757812 -1.519531 -21.917969 0.878906 -22.558594 1.199219 C -22.878906 1.359375 -24.636719 -0.320312 -25.519531 -1.039062 C -25.917969 -1.359375 -26.316406 -1.601562 -26.476562 -1.28125 C -26.636719 -1.121094 -26.558594 -1.039062 -26.316406 -0.71875 C -25.679688 -0.160156 -24 1.601562 -23.277344 1.839844 C -22.957031 1.917969 -22.480469 2.078125 -22.078125 1.917969 Z M -21.679688 1.679688 "/></g></g></g><g fill="#1f2122" fill-opacity="1"><g transform="translate(142.247208, 187.946994)"><g><path d="M -21.519531 -0.878906 C -21.359375 -1.359375 -21.597656 -3.28125 -22.796875 -5.757812 C -23.359375 -6.800781 -23.757812 -8 -24.476562 -9.519531 C -25.359375 -11.359375 -25.277344 -9.917969 -24.878906 -9.121094 C -24 -7.199219 -23.359375 -5.601562 -22.957031 -4.558594 C -22.398438 -3.359375 -22.078125 -1.359375 -22.238281 -1.28125 C -23.039062 -0.71875 -24.078125 -1.839844 -24.238281 -1.917969 L -24.558594 -2 L -24.558594 -2.320312 C -24.320312 -3.039062 -24.398438 -3.601562 -24.71875 -4.320312 C -24.878906 -4.640625 -25.039062 -5.039062 -25.117188 -5.039062 L -25.359375 -5.441406 C -25.4375 -5.601562 -25.679688 -5.839844 -25.839844 -6 C -26.160156 -6.238281 -26.316406 -6.238281 -26.636719 -6.160156 L -27.117188 -5.839844 C -27.359375 -5.28125 -27.117188 -3.917969 -26.316406 -2 L -26 -1.28125 C -26.160156 -1.199219 -27.917969 -2.960938 -28.878906 -4 L -30 -5.199219 C -30.238281 -5.28125 -30.957031 -6.320312 -31.117188 -6.800781 L -31.757812 -8.398438 L -32.71875 -10.878906 C -32.796875 -11.199219 -33.199219 -12.160156 -33.597656 -12.960938 L -34.476562 -15.039062 C -35.117188 -16.398438 -36.71875 -19.359375 -36.957031 -19.679688 C -37.039062 -19.757812 -37.117188 -19.917969 -37.199219 -20.160156 C -37.277344 -20.398438 -37.4375 -20.640625 -37.519531 -20.71875 L -38.316406 -21.839844 C -38.636719 -22.398438 -39.039062 -23.039062 -39.277344 -23.277344 L -39.597656 -23.757812 C -39.597656 -23.839844 -40.636719 -25.039062 -41.4375 -26 C -42.238281 -26.878906 -43.199219 -27.597656 -43.597656 -27.679688 C -44.15625 -27.679688 -44.476562 -27.519531 -44.558594 -27.039062 C -44.636719 -26.238281 -44.558594 -25.679688 -44.238281 -25.039062 L -43.917969 -24.238281 L -43.835938 -24.078125 L -43.355469 -23.039062 C -42.796875 -21.757812 -41.996094 -20.320312 -41.199219 -18.878906 L -40.476562 -17.839844 C -40.316406 -17.4375 -39.996094 -17.039062 -39.917969 -16.878906 C -39.757812 -16.800781 -39.757812 -16.640625 -39.835938 -16.640625 L -39.757812 -16.558594 C -39.675781 -16.558594 -39.4375 -16.238281 -39.277344 -15.917969 C -38.15625 -14.160156 -36.636719 -12.078125 -34.636719 -9.679688 L -33.039062 -7.597656 C -32.796875 -7.28125 -32.476562 -6.960938 -32.316406 -6.800781 C -32.078125 -6.640625 -31.839844 -6.320312 -31.679688 -5.917969 L -31.4375 -5.441406 L -31.359375 -5.199219 L -30.636719 -3.441406 L -29.757812 -0.960938 C -29.597656 -0.640625 -29.519531 -0.398438 -29.4375 -0.320312 C -29.117188 -0.160156 -28.957031 -0.238281 -28.957031 -0.558594 C -28.957031 -0.960938 -29.4375 -2.558594 -29.679688 -2.878906 C -29.839844 -3.121094 -30.078125 -3.601562 -30.15625 -4.078125 L -30.078125 -3.839844 C -30.078125 -4 -30 -3.917969 -29.839844 -3.757812 L -29.039062 -2.960938 C -28.878906 -2.800781 -26.957031 -0.960938 -26.636719 -0.558594 C -26.398438 -0.398438 -26.160156 -0.238281 -26 -0.078125 C -24.878906 0.800781 -24.078125 1.519531 -23.597656 2.320312 C -23.117188 3.039062 -22.71875 3.28125 -22.160156 3.199219 C -21.839844 3.121094 -21.757812 3.121094 -21.839844 2.800781 C -21.839844 2.558594 -22.078125 2.238281 -22.480469 1.917969 C -22.878906 1.601562 -23.277344 1.121094 -23.519531 0.800781 L -24.238281 0 C -24.320312 -0.078125 -24.476562 -0.398438 -24.558594 -0.558594 C -24.636719 -0.71875 -24.71875 -0.960938 -24.878906 -1.039062 C -24.636719 -1.039062 -24.398438 -0.960938 -24.238281 -0.878906 C -23.4375 -0.558594 -23.117188 -0.480469 -22.796875 -0.398438 C -22.160156 -0.238281 -21.679688 -0.480469 -21.519531 -0.878906 Z M -32.398438 -8.078125 C -32.398438 -7.839844 -32.636719 -8 -32.796875 -8.320312 L -33.4375 -9.121094 L -34.878906 -10.71875 C -35.039062 -11.039062 -35.277344 -11.359375 -35.4375 -11.4375 C -35.597656 -11.597656 -35.835938 -11.917969 -36.078125 -12.238281 L -36.957031 -13.4375 C -37.277344 -13.839844 -37.519531 -14.160156 -37.519531 -14.238281 C -37.597656 -14.320312 -37.835938 -14.71875 -38.078125 -15.117188 C -40.238281 -18.398438 -42.476562 -22.480469 -43.199219 -24.476562 L -43.597656 -25.4375 C -43.757812 -25.917969 -43.757812 -26.398438 -43.515625 -26.558594 C -43.277344 -26.796875 -42.398438 -26.238281 -41.675781 -25.277344 L -40.316406 -23.597656 L -39.996094 -23.277344 C -39.996094 -23.117188 -39.199219 -21.917969 -39.039062 -21.679688 C -38.957031 -21.597656 -38.636719 -21.199219 -38.398438 -20.71875 L -37.675781 -19.519531 C -37.277344 -18.878906 -36.796875 -18.078125 -36.238281 -17.039062 L -35.519531 -15.679688 L -35.199219 -15.039062 C -35.039062 -14.558594 -33.835938 -11.917969 -33.757812 -11.839844 C -33.757812 -11.839844 -33.597656 -11.4375 -33.519531 -11.121094 L -33.277344 -10.320312 L -33.117188 -10 L -32.71875 -8.960938 Z M -25.359375 -2.398438 C -25.4375 -2.160156 -25.519531 -2.160156 -25.519531 -2.320312 C -25.519531 -2.480469 -25.679688 -2.71875 -25.757812 -2.878906 C -26.160156 -3.359375 -26.476562 -4.480469 -26.476562 -4.960938 C -26.398438 -5.359375 -26.160156 -5.28125 -26 -4.878906 C -25.917969 -4.71875 -25.757812 -4.480469 -25.597656 -4.398438 C -25.277344 -4.160156 -25.117188 -2.878906 -25.359375 -2.398438 Z M -25.359375 -2.398438 "/></g></g></g><g fill="#1f2122" fill-opacity="1"><g transform="translate(142.247208, 177.867977)"><g><path d="M -21.679688 1.679688 L -21.679688 1.199219 C -21.679688 0.558594 -22.398438 -0.558594 -22.71875 -0.960938 L -23.199219 -1.519531 L -23.277344 -1.601562 L -22.957031 -1.601562 C -22.238281 -1.441406 -21.359375 -1.679688 -21.679688 -3.039062 L -21.679688 -3.28125 C -21.679688 -3.28125 -22.078125 -4.71875 -22.71875 -6.238281 L -24.320312 -9.757812 L -24.796875 -10.71875 C -24.878906 -10.960938 -25.117188 -10.960938 -25.199219 -10.800781 L -25.277344 -10.640625 L -25.277344 -10.480469 L -25.199219 -10.320312 C -23.679688 -6.800781 -22.71875 -4.398438 -22.480469 -3.28125 C -22.480469 -3.28125 -22.160156 -2.480469 -22.558594 -2.398438 C -22.796875 -2.238281 -23.519531 -2.480469 -24.238281 -3.039062 C -25.117188 -3.757812 -26.160156 -4.800781 -26.398438 -4.160156 C -26.476562 -3.917969 -26.476562 -3.839844 -26.078125 -3.441406 L -25.839844 -3.28125 L -25.359375 -2.800781 L -25.117188 -2.640625 C -23.757812 -1.519531 -21.917969 0.878906 -22.558594 1.199219 C -22.878906 1.359375 -24.636719 -0.320312 -25.519531 -1.039062 C -25.917969 -1.359375 -26.316406 -1.601562 -26.476562 -1.28125 C -26.636719 -1.121094 -26.558594 -1.039062 -26.316406 -0.71875 C -25.679688 -0.160156 -24 1.601562 -23.277344 1.839844 C -22.957031 1.917969 -22.480469 2.078125 -22.078125 1.917969 Z M -21.679688 1.679688 "/></g></g></g><g fill="#1f2122" fill-opacity="1"><g transform="translate(142.247208, 167.229012)"><g><path d="M -21.4375 -4.71875 L -21.679688 -6.398438 C -22 -7.917969 -22.957031 -10.640625 -22.957031 -10.640625 L -23.4375 -11.757812 L -23.839844 -12.640625 L -24.078125 -13.121094 C -24.398438 -13.757812 -24.398438 -13.839844 -24.636719 -14.480469 C -24.957031 -15.359375 -25.117188 -15.757812 -25.359375 -15.199219 C -25.4375 -15.039062 -25.277344 -14.480469 -24.558594 -12.800781 C -24.078125 -11.597656 -23.4375 -9.917969 -23.199219 -9.121094 C -22 -5.28125 -21.757812 -3.359375 -22.796875 -3.359375 C -23.117188 -3.28125 -23.519531 -3.441406 -24.078125 -4 C -24.796875 -4.640625 -26.160156 -4.640625 -25.277344 -3.441406 C -25.117188 -3.28125 -24.957031 -2.878906 -24.796875 -2.558594 L -23.679688 0 L -24.558594 -0.558594 C -25.039062 -0.800781 -25.039062 -0.800781 -25.359375 -0.558594 C -25.757812 -0.238281 -25.679688 0.078125 -24.878906 0.640625 L -24.160156 1.199219 C -23.757812 1.359375 -22.796875 2 -22.480469 2.320312 L -22.238281 2.320312 C -22 2.480469 -21.679688 2.238281 -21.679688 1.917969 C -21.597656 1.839844 -21.757812 1.601562 -21.839844 1.359375 C -22.320312 0.640625 -23.679688 -1.839844 -24.078125 -2.640625 L -24.078125 -2.71875 L -23.757812 -2.558594 L -23.679688 -2.558594 L -23.4375 -2.398438 C -23.039062 -2.160156 -22.078125 -2.320312 -21.839844 -2.640625 C -21.4375 -3.121094 -21.359375 -3.917969 -21.4375 -4.71875 Z M -21.4375 -4.71875 "/></g></g></g><g fill="#1f2122" fill-opacity="1"><g transform="translate(142.247208, 152.190469)"><g><path d="M -19.039062 -1.839844 L -21.679688 -4 C -24.398438 -6.078125 -27.117188 -8.558594 -28.238281 -9.917969 L -29.597656 -11.359375 L -30.476562 -12.480469 L -31.359375 -13.679688 C -31.679688 -14.160156 -32.636719 -15.597656 -33.039062 -16 L -33.996094 -17.199219 C -34.636719 -18.160156 -36.398438 -20.320312 -37.277344 -21.117188 C -38.71875 -22.558594 -39.515625 -23.277344 -40.476562 -24 C -41.355469 -24.636719 -41.597656 -24.796875 -41.917969 -24.71875 C -42.398438 -24.636719 -42.316406 -24.238281 -41.835938 -23.359375 C -41.597656 -23.039062 -41.117188 -22.320312 -40.71875 -21.917969 L -39.675781 -20.558594 C -39.199219 -19.839844 -37.917969 -18.480469 -36.636719 -17.277344 C -35.597656 -16.320312 -35.359375 -16.078125 -34.15625 -14.800781 L -33.359375 -14 L -30.15625 -10.878906 C -29.597656 -10.320312 -28.71875 -9.039062 -28.078125 -7.757812 C -27.757812 -7.039062 -27.277344 -6.238281 -27.039062 -5.839844 L -26.238281 -4.558594 L -25.917969 -4 L -26.160156 -3.757812 C -26.878906 -3.199219 -26.796875 -2.320312 -25.917969 -0.71875 C -25.359375 0.320312 -23.679688 2.238281 -22.71875 2.878906 C -21.917969 3.441406 -21.4375 3.199219 -21.757812 2.320312 C -22 1.519531 -22.636719 0.238281 -23.039062 -0.398438 L -23.199219 -0.71875 C -23.199219 -0.800781 -23.4375 -1.121094 -23.679688 -1.519531 L -24.078125 -2.320312 L -24.476562 -3.039062 L -26.160156 -5.757812 C -26.558594 -6.480469 -26.878906 -7.039062 -26.878906 -7.121094 C -26.878906 -7.121094 -26.476562 -6.800781 -26.160156 -6.398438 C -25.117188 -5.359375 -19.839844 -1.121094 -19.519531 -1.121094 C -19.117188 -1.199219 -18.878906 -1.601562 -19.039062 -1.839844 Z M -32.476562 -14.558594 C -32.316406 -14.160156 -33.519531 -15.199219 -34.957031 -16.800781 L -35.996094 -17.839844 C -36.71875 -18.398438 -37.277344 -18.957031 -37.917969 -19.679688 L -38.558594 -20.320312 L -39.4375 -21.359375 C -41.039062 -23.519531 -41.117188 -23.839844 -39.675781 -22.636719 C -38.71875 -21.917969 -38.238281 -21.359375 -36.398438 -19.4375 C -35.757812 -18.71875 -34.957031 -17.757812 -34.558594 -17.199219 L -33.519531 -15.917969 Z M -22.957031 1.519531 C -22.957031 1.761719 -23.597656 1.199219 -24.238281 0.480469 L -24.796875 -0.160156 C -24.878906 -0.238281 -25.039062 -0.480469 -25.199219 -0.878906 L -25.597656 -1.679688 C -25.679688 -1.917969 -25.679688 -2.480469 -25.597656 -2.640625 C -25.4375 -2.800781 -24.957031 -2.398438 -24.636719 -1.761719 C -24.398438 -1.359375 -24.238281 -1.039062 -24.160156 -0.960938 C -24.160156 -0.878906 -23.917969 -0.320312 -23.597656 0.320312 C -23.277344 0.878906 -22.957031 1.441406 -22.957031 1.519531 Z M -22.957031 1.519531 "/></g></g></g></svg>